HIERARCHY
ROOT hip
{
  OFFSET -40.1423 89.467 138.17
  CHANNELS 6 Xposition Yposition Zposition Zrotation Xrotation Yrotation
  JOINT abdomen
  {
    OFFSET 0 20.6881 -0.73152
    CHANNELS 3 Zrotation Xrotation Yrotation
    JOINT chest
    {
      OFFSET 0 11.7043 -0.48768
      CHANNELS 3 Zrotation Xrotation Yrotation
      JOINT neck
      {
        OFFSET 0 22.1894 -2.19456
        CHANNELS 3 Zrotation Xrotation Yrotation
        JOINT head
        {
          OFFSET -0.24384 7.07133 1.2192
          CHANNELS 3 Zrotation Xrotation Yrotation
          JOINT leftEye
          {
            OFFSET 4.14528 8.04674 8.04672
            CHANNELS 3 Zrotation Xrotation Yrotation
            End Site
            {
              OFFSET 1 0 0
            }
          }
          JOINT rightEye
          {
            OFFSET -3.6576 8.04674 8.04672
            CHANNELS 3 Zrotation Xrotation Yrotation
            End Site
            {
              OFFSET 1 0 0
            }
          }
        }
      }
      JOINT rCollar
      {
        OFFSET -2.68224 19.2634 -4.8768
        CHANNELS 3 Zrotation Xrotation Yrotation
        JOINT rShldr
        {
          OFFSET -8.77824 -1.95073 1.46304
          CHANNELS 3 Zrotation Xrotation Yrotation
          JOINT rForeArm
          {
            OFFSET -28.1742 -1.7115 0.48768
            CHANNELS 3 Zrotation Xrotation Yrotation
            JOINT rHand
            {
              OFFSET -22.5879 0.773209 7.07136
              CHANNELS 3 Zrotation Xrotation Yrotation
              JOINT rThumb1
              {
                OFFSET -1.2192 -0.487915 3.41376
                CHANNELS 3 Zrotation Xrotation Yrotation
                JOINT rThumb2
                {
                  OFFSET -3.37035 -0.52449 3.41376
                  CHANNELS 3 Zrotation Xrotation Yrotation
                  End Site
                  {
                    OFFSET -1.78271 -1.18214 1.43049
                  }
                }
              }
              JOINT rIndex1
              {
                OFFSET -7.75947 0.938293 5.60832
                CHANNELS 3 Zrotation Xrotation Yrotation
                JOINT rIndex2
                {
                  OFFSET -2.54057 -0.884171 1.56538
                  CHANNELS 3 Zrotation Xrotation Yrotation
                  End Site
                  {
                    OFFSET -1.62519 -0.234802 1.16502
                  }
                }
              }
              JOINT rMid1
              {
                OFFSET -8.24714 1.18213 3.41376
                CHANNELS 3 Zrotation Xrotation Yrotation
                JOINT rMid2
                {
                  OFFSET -3.10165 -0.590103 1.0647
                  CHANNELS 3 Zrotation Xrotation Yrotation
                  End Site
                  {
                    OFFSET -2.48547 -0.328903 0.83742
                  }
                }
              }
              JOINT rRing1
              {
                OFFSET -8.82822 0.546677 1.51678
                CHANNELS 3 Zrotation Xrotation Yrotation
                JOINT rRing2
                {
                  OFFSET -2.60934 -0.819778 -0.0198488
                  CHANNELS 3 Zrotation Xrotation Yrotation
                  End Site
                  {
                    OFFSET -2.33842 -0.294052 0.168128
                  }
                }
              }
              JOINT rPinky1
              {
                OFFSET -8.27202 -0.0477905 -0.4584
                CHANNELS 3 Zrotation Xrotation Yrotation
                JOINT rPinky2
                {
                  OFFSET -1.82734 -0.647385 -0.700984
                  CHANNELS 3 Zrotation Xrotation Yrotation
                  End Site
                  {
                    OFFSET -1.69225 -0.51767 -0.607171
                  }
                }
              }
            }
          }
        }
      }
      JOINT lCollar
      {
        OFFSET 2.68224 19.2634 -4.8768
        CHANNELS 3 Zrotation Xrotation Yrotation
        JOINT lShldr
        {
          OFFSET 8.77824 -1.95073 1.46304
          CHANNELS 3 Zrotation Xrotation Yrotation
          JOINT lForeArm
          {
            OFFSET 28.1742 -1.7115 0.48768
            CHANNELS 3 Zrotation Xrotation Yrotation
            JOINT lHand
            {
              OFFSET 22.5879 0.773209 7.07136
              CHANNELS 3 Zrotation Xrotation Yrotation
              JOINT lThumb1
              {
                OFFSET 1.2192 -0.487915 3.41376
                CHANNELS 3 Zrotation Xrotation Yrotation
                JOINT lThumb2
                {
                  OFFSET 3.37035 -0.52449 3.41376
                  CHANNELS 3 Zrotation Xrotation Yrotation
                  End Site
                  {
                    OFFSET 1.78271 -1.18214 1.43049
                  }
                }
              }
              JOINT lIndex1
              {
                OFFSET 7.75947 0.938293 5.60832
                CHANNELS 3 Zrotation Xrotation Yrotation
                JOINT lIndex2
                {
                  OFFSET 2.54057 -0.884171 1.56538
                  CHANNELS 3 Zrotation Xrotation Yrotation
                  End Site
                  {
                    OFFSET 1.62519 -0.234802 1.16502
                  }
                }
              }
              JOINT lMid1
              {
                OFFSET 8.24714 1.18213 3.41376
                CHANNELS 3 Zrotation Xrotation Yrotation
                JOINT lMid2
                {
                  OFFSET 3.10165 -0.590103 1.0647
                  CHANNELS 3 Zrotation Xrotation Yrotation
                  End Site
                  {
                    OFFSET 2.48547 -0.328903 0.83742
                  }
                }
              }
              JOINT lRing1
              {
                OFFSET 8.82822 0.546677 1.51678
                CHANNELS 3 Zrotation Xrotation Yrotation
                JOINT lRing2
                {
                  OFFSET 2.60934 -0.819778 -0.0198488
                  CHANNELS 3 Zrotation Xrotation Yrotation
                  End Site
                  {
                    OFFSET 2.33842 -0.294052 0.168128
                  }
                }
              }
              JOINT lPinky1
              {
                OFFSET 8.27202 -0.0477905 -0.4584
                CHANNELS 3 Zrotation Xrotation Yrotation
                JOINT lPinky2
                {
                  OFFSET 1.82734 -0.647385 -0.700984
                  CHANNELS 3 Zrotation Xrotation Yrotation
                  End Site
                  {
                    OFFSET 1.69225 -0.51767 -0.607171
                  }
                }
              }
            }
          }
        }
      }
    }
  }
  JOINT rButtock
  {
    OFFSET -8.77824 4.35084 1.2192
    CHANNELS 3 Zrotation Xrotation Yrotation
    JOINT rThigh
    {
      OFFSET 0 -1.70687 -2.19456
      CHANNELS 3 Zrotation Xrotation Yrotation
      JOINT rShin
      {
        OFFSET 0 -36.8199 0.73152
        CHANNELS 3 Zrotation Xrotation Yrotation
        JOINT rFoot
        {
          OFFSET 0.73152 -45.1104 -5.12064
          CHANNELS 3 Zrotation Xrotation Yrotation
          End Site
          {
            OFFSET -1.1221 -3.69964 12.103
          }
        }
      }
    }
  }
  JOINT lButtock
  {
    OFFSET 8.77824 4.35084 1.2192
    CHANNELS 3 Zrotation Xrotation Yrotation
    JOINT lThigh
    {
      OFFSET 0 -1.70687 -2.19456
      CHANNELS 3 Zrotation Xrotation Yrotation
      JOINT lShin
      {
        OFFSET 0 -36.8199 0.73152
        CHANNELS 3 Zrotation Xrotation Yrotation
        JOINT lFoot
        {
          OFFSET -0.73152 -45.1104 -5.12064
          CHANNELS 3 Zrotation Xrotation Yrotation
          End Site
          {
            OFFSET 1.1221 -3.69964 12.103
          }
        }
      }
    }
  }
}
MOTION
Frames:	4
Frame Time:	0.00833333
-47.2515 85.2904 65.9868 3.0449 0.369823 -0.275433 0.599623 2.39723 -1.62745 4.03182 -0.317365 -0.717782 -6.0662 -1.94387 -0.306576 2.99613 6.21975 1.09397 -0 0 0 -0 0 0 -2.58383e-015 -8.35517e-015 8.84592e-015 54.4929 39.0949 33.4383 -28.4199 -34.7932 75.0036 -0.0610385 -7.03224 -0.993359 1.08854e-010 5.39889e-010 3.47348e-010 1.85936e-010 9.22173e-010 6.03112e-010 1.08859e-010 5.39893e-010 3.47342e-010 7.73091 5.47488 0.417314 1.08852e-010 5.39889e-010 3.47345e-010 2.90554 0.965183 0.102902 1.08859e-010 5.3989e-010 3.47352e-010 10.2786 0.731801 0.0259123 1.08848e-010 5.39903e-010 3.47361e-010 2.22167 -0.733487 -0.20892 -2.58481e-015 -8.34236e-015 8.64713e-015 -35.9574 49.1957 -63.866 27.8864 -29.9735 -67.2065 1.67419 -34.087 5.45746 -2.32549e-010 -2.16219e-010 -2.35485e-010 -3.96674e-010 -3.94023e-010 -4.13547e-010 -2.32553e-010 -2.1622e-010 -2.35476e-010 -7.73091 5.47488 -0.417314 -2.32548e-010 -2.1622e-010 -2.35479e-010 -2.90554 0.965183 -0.102902 -2.32555e-010 -2.1622e-010 -2.35482e-010 -10.2786 0.731801 -0.0259123 -2.32541e-010 -2.16216e-010 -2.35485e-010 -2.22167 -0.733487 0.20892 -2.03217e-016 0 -3.88251e-019 -8.65582 -20.0283 -1.7823 -1.44783 63.4891 1.4173 -0.463356 18.7 0.392614 2.03217e-016 0 3.88251e-019 -1.59078 -32.6784 5.14191 0.334041 38.6286 -0.0376199 -0.794773 -7.75674 -4.99921 
-46.9967 85.2389 66.9661 3.38579 0.0836551 -0.0648933 0.0187208 2.41419 -1.47639 3.98679 -0.087643 -0.694029 -6.24588 -2.01968 -0.312753 3.28221 6.32892 1.13015 -0 0 0 -0 0 0 6.84365e-015 -1.18003e-014 1.66405e-014 54.8376 38.9438 33.0697 -28.4239 -35.1151 75.5604 -0.0628646 -7.13112 -1.00748 1.18875e-010 4.3865e-010 2.24698e-010 2.0407e-010 7.50978e-010 3.90464e-010 1.18881e-010 4.38655e-010 2.24688e-010 7.73091 5.47488 0.417314 1.18875e-010 4.38652e-010 2.24693e-010 2.90554 0.965183 0.102902 1.1888e-010 4.3865e-010 2.247e-010 10.2786 0.731801 0.0259123 1.18868e-010 4.38661e-010 2.2471e-010 2.22167 -0.733487 -0.20892 6.87946e-015 -1.17859e-014 1.64529e-014 -35.3267 48.9568 -63.9732 27.9326 -30.2274 -67.6172 1.67993 -34.1357 5.46756 -1.21788e-010 -7.56437e-011 -9.57069e-011 -2.08933e-010 -1.40096e-010 -1.69351e-010 -1.21792e-010 -7.56453e-011 -9.56988e-011 -7.73091 5.47488 -0.417314 -1.21786e-010 -7.56391e-011 -9.57012e-011 -2.90554 0.965183 -0.102902 -1.21794e-010 -7.56456e-011 -9.57037e-011 -10.2786 0.731801 -0.0259123 -1.21781e-010 -7.56426e-011 -9.57069e-011 -2.22167 -0.733487 0.20892 -2.03217e-016 0 -3.88251e-019 -9.15672 -21.1731 -2.04929 -1.62939 65.3809 1.58427 -0.323387 18.9411 -0.535695 2.03217e-016 0 3.88251e-019 -2.2752 -31.8339 4.7931 0.333141 38.7841 -0.0466461 -0.788839 -8.2151 -4.80466 
-46.6315 85.2592 67.9076 3.74818 -0.140179 0.215962 -0.563316 2.3372 -1.35409 3.9531 0.236065 -0.677959 -6.56291 -2.33139 -0.325864 3.80806 6.80542 1.19593 -0 0 0 -0 0 0 2.67199e-014 -1.47412e-014 2.55003e-014 55.0857 38.7759 32.8196 -28.4285 -35.3698 75.9785 -0.0642709 -7.20575 -1.01815 9.88043e-011 1.0589e-010 8.58766e-011 1.70486e-010 1.8092e-010 1.49237e-010 9.88126e-011 1.05896e-010 8.58627e-011 7.73091 5.47488 0.417314 9.88075e-011 1.05894e-010 8.58698e-011 2.90554 0.965183 0.102902 9.88115e-011 1.05888e-010 8.58779e-011 10.2786 0.731801 0.0259123 9.87984e-011 1.05894e-010 8.58879e-011 2.22167 -0.733487 -0.20892 2.6789e-014 -1.47275e-014 2.53295e-014 -34.7001 48.6717 -64.1351 27.9734 -30.4566 -67.9801 1.69012 -34.222 5.48546 4.32299e-011 2.54639e-010 1.73471e-010 6.96012e-011 4.47527e-010 2.99519e-010 4.3225e-011 2.54637e-010 1.73479e-010 -7.73091 5.47488 -0.417314 4.32313e-011 2.54653e-010 1.73476e-010 -2.90554 0.965183 -0.102902 4.32233e-011 2.54637e-010 1.73475e-010 -10.2786 0.731801 -0.0259123 4.32329e-011 2.54639e-010 1.73472e-010 -2.22167 -0.733487 0.20892 -2.03217e-016 0 -3.88251e-019 -9.71955 -22.2869 -2.46802 -1.84017 67.2453 1.78506 -0.15423 18.1079 -1.88331 2.03217e-016 0 3.88251e-019 -3.06652 -30.9012 4.24743 0.326046 38.6594 -0.0579999 -0.757027 -8.47337 -4.60804 
-46.3522 85.3217 68.9081 4.07351 -0.34271 0.568496 -1.09005 2.23645 -1.3037 3.94478 0.555484 -0.680054 -6.89919 -2.66804 -0.331742 4.34424 7.3767 1.2808 -0 0 0 -0 0 0 4.13251e-014 -1.87627e-014 3.88919e-014 55.2312 38.6614 32.6568 -28.4325 -35.5594 76.2782 -0.0645285 -7.22058 -1.02027 7.74423e-011 -2.14108e-010 -8.44702e-011 1.34689e-010 -3.67053e-010 -1.46428e-010 7.74523e-011 -2.14101e-010 -8.4488e-011 7.73091 5.47488 0.417314 7.74485e-011 -2.14103e-010 -8.4479e-011 2.90554 0.965183 0.102902 7.74515e-011 -2.14111e-010 -8.44698e-011 10.2786 0.731801 0.0259123 7.74372e-011 -2.1411e-010 -8.44597e-011 2.22167 -0.733487 -0.20892 4.14167e-014 -1.87504e-014 3.87362e-014 -34.1363 48.4135 -64.2634 28.0069 -30.652 -68.2883 1.69397 -34.2547 5.49226 2.10786e-010 5.33443e-010 4.19188e-010 3.53076e-010 9.45503e-010 7.28003e-010 2.1078e-010 5.33441e-010 4.19195e-010 -7.73091 5.47488 -0.417314 2.10787e-010 5.33465e-010 4.19192e-010 -2.90554 0.965183 -0.102902 2.10778e-010 5.33441e-010 4.19193e-010 -10.2786 0.731801 -0.0259123 2.10785e-010 5.33442e-010 4.1919e-010 -2.22167 -0.733487 0.20892 -2.03217e-016 0 -3.88251e-019 -10.2592 -23.3369 -2.99112 -2.06937 68.9745 2.00869 -0.0448588 16.7871 -3.34942 2.03217e-016 0 3.88251e-019 -3.84258 -29.9033 3.63187 0.315925 38.4054 -0.0717302 -0.715714 -8.68736 -4.4113 
